<?xml version="1.0" standalone="no"?>
<!DOCTYPE svg PUBLIC "-//W3C//DTD SVG 20010904//EN"
 "http://www.w3.org/TR/2001/REC-SVG-20010904/DTD/svg10.dtd">
<svg version="1.0" xmlns="http://www.w3.org/2000/svg"
 width="792.000000pt" height="825.000000pt" viewBox="0 0 792.000000 825.000000"
 preserveAspectRatio="xMidYMid meet">

<g transform="translate(0.000000,825.000000) scale(0.100000,-0.100000)"
fill="#000000" stroke="none">
<path d="M0 6265 l0 -1985 533 -1 c292 -1 677 -3 855 -5 177 -2 333 1 346 6
14 5 38 35 60 74 20 36 48 79 62 95 l26 31 197 0 c127 0 201 -4 208 -11 10
-10 7 -32 -13 -97 -4 -14 1 -40 14 -70 17 -39 19 -55 11 -96 -11 -59 -22 -73
-71 -93 -46 -18 -70 -65 -68 -133 1 -25 -2 -56 -6 -68 -6 -22 -11 -23 -53 -18
-90 10 -166 24 -201 35 -42 13 -43 13 -35 1 4 -6 -10 -10 -33 -10 -26 0 -42 5
-46 15 -4 12 4 15 39 15 26 0 47 5 52 14 4 7 19 19 32 26 l25 13 -22 17 c-21
17 -73 27 -191 34 -30 2 -57 10 -62 17 -4 7 -9 11 -11 9 -48 -75 -53 -89 -40
-111 10 -16 9 -19 -3 -19 -8 0 -15 -5 -15 -11 0 -5 -4 -8 -8 -5 -12 7 -66 -51
-87 -93 -24 -47 -36 -216 -33 -471 1 -113 -2 -260 -6 -328 -8 -114 -10 -124
-30 -132 -12 -4 -338 -5 -724 -2 l-702 5 0 -1456 0 -1457 3960 0 3960 0 0
1430 0 1430 -64 0 c-57 0 -65 3 -71 21 -9 27 3 259 20 384 7 55 14 191 14 302
0 267 -7 286 -126 315 -34 9 -73 13 -86 11 -13 -3 -38 2 -55 11 -27 14 -31 14
-43 0 -9 -11 -23 -14 -46 -11 -22 4 -32 2 -30 -6 3 -16 -52 -22 -66 -8 -15 15
-54 14 -60 -3 -10 -24 -66 -25 -96 -1 -14 12 -42 27 -61 35 -19 7 -52 29 -73
47 -20 18 -42 33 -48 33 -5 0 -24 15 -42 34 -18 19 -45 36 -62 39 -90 15 -155
34 -195 57 -38 22 -47 34 -64 85 -21 62 -90 145 -121 145 -19 0 -20 -19 0 -26
9 -4 15 -19 15 -36 0 -30 0 -30 -47 -24 -79 10 -104 7 -134 -17 -15 -12 -28
-25 -28 -28 -1 -3 15 -13 33 -22 27 -12 36 -24 41 -51 9 -47 0 -59 -44 -54
-30 2 -37 0 -38 -15 -1 -10 -12 -26 -25 -37 -21 -16 -25 -17 -40 -3 -10 9 -25
12 -37 8 -12 -3 -21 -2 -21 3 0 5 -13 7 -30 4 -16 -2 -30 -8 -30 -13 0 -5 -7
-9 -16 -9 -10 0 -14 6 -11 14 7 17 -11 24 -63 28 -20 1 -42 11 -52 23 -10 11
-17 17 -18 13 0 -5 -9 1 -20 12 -23 23 -26 46 -7 53 8 4 9 6 0 6 -6 1 -19 -7
-29 -16 -22 -23 -83 -25 -107 -5 -16 15 -17 14 -11 -2 6 -16 3 -17 -16 -11
-24 8 -24 7 3 -24 19 -22 27 -44 27 -69 0 -20 3 -47 6 -60 5 -17 3 -21 -8 -17
-10 4 -17 26 -21 62 -3 30 -8 57 -11 60 -3 3 -27 7 -53 9 -43 3 -45 2 -13 -5
l35 -8 -40 -2 c-55 -2 -74 -15 -58 -40 11 -18 9 -20 -18 -26 -36 -8 -64 10
-40 25 12 7 12 11 2 24 -15 17 -41 22 -41 7 0 -5 5 -11 10 -13 7 -2 5 -15 -6
-36 -13 -26 -20 -32 -37 -26 -36 10 -43 23 -21 38 19 14 19 15 -1 21 -11 4
-38 13 -59 21 -55 21 -74 1 -21 -21 53 -23 33 -41 -26 -25 -48 13 -59 23 -59
58 0 17 -7 24 -29 28 -26 6 -30 11 -34 53 -3 25 -12 79 -21 118 -16 76 -15
168 3 202 6 11 11 64 11 117 0 128 3 132 107 122 43 -3 247 -9 453 -13 406 -6
587 -18 637 -42 25 -11 35 -25 44 -55 5 -22 8 -47 5 -55 -3 -8 -2 -22 3 -32
14 -26 -9 -101 -31 -101 -10 0 -18 -7 -18 -15 0 -18 24 -30 40 -20 6 4 91 7
187 6 190 -1 173 3 269 -62 130 -87 172 -108 244 -122 92 -19 240 -30 240 -17
0 12 29 40 42 40 6 0 8 -9 5 -20 -4 -15 0 -20 14 -20 10 0 19 5 19 11 0 5 5 7
12 3 6 -4 73 -6 147 -5 175 4 163 4 188 -4 l22 -7 -6 158 c-3 88 -5 382 -4
654 1 272 4 1110 7 1863 l5 1367 -3961 0 -3960 0 0 -1985z m3090 1755 c0 -5
-5 -10 -11 -10 -5 0 -7 5 -4 10 3 6 8 10 11 10 2 0 4 -4 4 -10z m1170 -675
c18 -9 44 -18 58 -20 33 -3 45 -25 26 -50 -27 -37 -27 -46 4 -84 32 -40 32
-51 1 -51 -10 0 -31 -11 -46 -24 -27 -24 -28 -25 -12 -53 20 -34 36 -197 21
-207 -6 -4 -19 2 -29 12 -24 25 -87 45 -115 37 -13 -4 -32 -16 -43 -26 -30
-27 -78 -35 -94 -15 -17 20 -30 81 -24 106 7 25 19 25 68 0 52 -27 104 -26
146 3 29 19 35 31 42 76 10 63 9 64 -77 81 -106 20 -134 31 -138 54 -5 30 16
109 26 99 5 -4 6 0 3 10 -4 9 -2 17 3 17 6 0 10 9 10 20 0 10 8 24 18 30 23
14 112 6 152 -15z m-195 -582 c18 -14 18 -15 2 -9 -10 3 -23 6 -28 6 -5 0 -9
5 -9 10 0 14 12 12 35 -7z m19 -64 c25 -24 14 -36 -19 -21 -14 7 -35 12 -45
12 -23 0 -26 10 -8 28 15 15 46 6 72 -19z m134 -409 l43 -39 -20 -20 c-17 -17
-25 -19 -46 -11 -69 26 -93 55 -75 90 16 30 50 23 98 -20z m160 -76 c2 -17 -3
-23 -25 -27 -15 -3 -34 0 -42 6 -11 9 -9 14 10 29 28 23 53 19 57 -8z m1562
-279 c-16 -19 -30 -19 -30 -1 0 8 8 16 18 18 24 6 27 1 12 -17z m640 -105 c0
-5 -4 -10 -10 -10 -5 0 -10 5 -10 10 0 6 5 10 10 10 6 0 10 -4 10 -10z m-2335
-39 c-4 -9 -9 -28 -12 -43 -6 -29 -17 -36 -28 -18 -9 15 -25 2 -25 -20 0 -10
-5 -22 -11 -26 -8 -5 -10 9 -6 49 3 31 7 60 10 64 3 5 22 9 42 9 28 0 34 -3
30 -15z m2355 -27 c0 -8 -5 -12 -10 -9 -6 4 -8 11 -5 16 9 14 15 11 15 -7z
m-1869 -66 c-4 -13 -6 -29 -4 -35 3 -7 -2 -13 -11 -13 -12 0 -16 10 -16 35 0
28 4 35 20 35 16 0 18 -4 11 -22z m-783 -10 c7 -1 12 -15 12 -34 0 -30 -3 -33
-27 -31 -34 2 -43 13 -43 51 0 25 3 27 23 21 12 -3 28 -7 35 -7z m2672 -5 c0
-10 -12 -44 -27 -75 -20 -43 -33 -58 -48 -58 -11 0 -33 -9 -50 -20 -16 -11
-44 -20 -61 -20 -38 0 -253 -68 -275 -86 -8 -8 -20 -14 -25 -14 -6 0 -29 -9
-53 -21 -59 -28 -89 -20 -39 10 31 19 37 27 32 46 -7 29 12 43 21 15 8 -24 14
-25 62 -4 21 9 52 22 68 29 38 16 229 72 275 81 39 7 70 30 70 52 0 20 31 82
41 82 5 0 9 -8 9 -17z m-865 -150 c3 -21 10 -62 15 -92 10 -56 7 -71 -14 -71
-8 0 -19 -7 -26 -15 -9 -11 -6 -23 19 -59 41 -59 41 -96 1 -120 -18 -10 -30
-25 -28 -34 4 -27 -11 -42 -42 -42 -19 0 -33 -7 -40 -19 -12 -23 -119 -83
-132 -75 -5 3 -7 12 -4 19 2 7 -4 15 -15 18 -11 3 -19 14 -19 25 0 28 -25 85
-47 104 -25 23 -29 74 -6 86 15 9 15 14 5 37 -13 27 -8 65 8 65 4 0 16 13 27
29 19 31 85 81 107 81 7 0 25 -14 42 -31 31 -33 74 -59 97 -59 24 0 27 27 12
101 -19 90 -19 89 10 89 20 0 25 -6 30 -37z m-1265 -283 c0 -5 -15 -10 -32 -9
-31 1 -32 1 -8 9 35 11 40 11 40 0z m1467 -16 c-3 -3 -12 -4 -19 -1 -8 3 -5 6
6 6 11 1 17 -2 13 -5z m-737 -37 c0 -38 -6 -48 -26 -40 -14 5 -20 54 -7 66 17
18 33 5 33 -26z m-750 -5 l25 -9 -32 -7 c-18 -4 -33 -11 -33 -16 0 -12 23 -28
50 -33 22 -4 21 -4 -7 -6 -24 -1 -36 6 -52 28 -31 43 -26 79 8 61 9 -4 27 -12
41 -18z m918 -14 c-3 -7 -13 -15 -24 -17 -16 -3 -17 -1 -5 13 16 19 34 21 29
4z m-62 -33 c-11 -8 -25 -15 -30 -15 -6 0 -2 7 8 15 11 8 25 15 30 15 6 0 2
-7 -8 -15z m-296 -50 c0 -42 -16 -54 -31 -22 -8 18 -8 30 0 46 16 29 31 17 31
-24z m-162 -93 c3 -27 0 -32 -17 -32 -16 0 -21 6 -21 28 0 53 33 56 38 4z
m-542 20 c7 -4 19 -24 27 -44 8 -20 25 -41 36 -48 13 -6 21 -21 21 -35 0 -21
-13 -31 -87 -67 -136 -65 -182 -96 -189 -126 -11 -44 -15 -45 -45 -16 -26 25
-30 26 -59 14 -18 -7 -36 -24 -41 -38 -9 -23 -5 -152 7 -231 5 -31 7 -33 36
-27 45 9 87 43 96 79 6 23 15 33 33 35 13 2 29 7 34 12 21 16 286 150 298 150
7 0 13 -19 15 -50 2 -47 1 -50 -30 -66 -92 -46 -133 -102 -144 -197 -6 -53 -6
-55 30 -82 49 -37 49 -68 -1 -94 -34 -17 -54 -18 -180 -13 -79 2 -143 2 -143
-2 0 -4 6 -17 14 -29 13 -20 12 -26 -15 -66 -17 -24 -44 -69 -62 -100 -109
-196 -248 -328 -341 -323 -17 1 -42 2 -56 3 -44 2 -135 -22 -147 -39 -7 -8
-13 -12 -13 -6 0 5 -23 20 -51 33 -62 30 -113 90 -141 168 -49 136 -30 628 27
691 38 42 91 92 97 92 19 0 79 -89 93 -138 24 -82 71 -173 105 -205 22 -21 30
-38 30 -62 0 -19 7 -41 16 -50 32 -32 102 7 130 71 9 22 26 37 55 48 36 15 40
20 35 41 -3 13 -1 27 5 30 6 4 9 34 8 72 -2 61 -1 66 24 81 33 21 34 40 3 52
-13 5 -27 14 -31 19 -11 18 -22 12 -35 -19 -15 -36 -57 -41 -85 -10 -10 11
-24 20 -31 20 -20 0 -28 -40 -11 -53 8 -7 18 -25 22 -42 3 -16 24 -46 46 -67
21 -20 39 -40 39 -43 0 -3 -12 -5 -27 -5 -56 0 -163 100 -163 153 0 8 -7 28
-17 44 -21 37 -11 83 17 83 11 0 20 6 20 14 0 17 46 56 66 56 8 0 20 -15 27
-32 17 -40 42 -62 62 -54 21 8 19 17 -10 48 -14 15 -25 32 -25 38 0 6 -17 18
-37 26 -109 43 -113 46 -113 76 0 37 31 49 125 51 56 1 82 -5 129 -26 100 -46
123 -38 243 87 45 46 99 94 120 105 38 20 117 28 139 13z m-1627 -37 c58 -9
140 -22 181 -30 41 -8 120 -21 174 -30 55 -8 105 -20 111 -25 6 -5 17 -29 24
-52 7 -24 18 -49 24 -56 11 -14 8 -22 -63 -162 -31 -60 -71 -92 -81 -63 -4 12
-8 13 -13 4 -5 -7 -27 -12 -54 -11 -26 0 -74 -2 -107 -6 -57 -6 -64 -4 -107
25 -26 17 -64 38 -85 47 -63 26 -106 45 -138 59 -16 8 -50 19 -75 26 -63 17
-74 30 -66 73 6 33 9 35 22 21 21 -20 63 -30 76 -17 12 12 -46 95 -79 111 -41
19 -4 70 66 91 40 12 74 11 190 -5z m1951 -82 c-1 -24 -2 -26 -11 -10 -5 9 -7
22 -4 27 10 17 15 11 15 -17z m-2246 -92 c8 -13 -4 -42 -15 -35 -12 7 -12 44
0 44 6 0 12 -4 15 -9z m2431 -337 c42 -19 80 -60 66 -68 -12 -8 -121 59 -121
74 0 14 17 12 55 -6z m-1249 -71 c16 -31 46 -73 66 -93 45 -41 48 -55 12 -46
-47 12 -124 120 -124 173 0 38 16 26 46 -34z m2959 -253 c3 -5 1 -10 -4 -10
-6 0 -11 5 -11 10 0 6 2 10 4 10 3 0 8 -4 11 -10z m-1211 -65 c-4 -8 -10 -12
-15 -9 -14 8 -10 24 6 24 9 0 12 -6 9 -15z m384 -23 c6 -18 -15 -14 -22 4 -4
10 -1 14 6 12 6 -2 14 -10 16 -16z m-3992 -90 c19 -1 34 -9 38 -18 9 -23 -2
-36 -22 -25 -11 6 -25 4 -45 -7 -22 -13 -29 -14 -36 -4 -4 7 -15 10 -24 6 -13
-5 -16 -2 -12 10 3 9 7 22 9 30 3 7 16 12 33 11 15 -1 42 -3 59 -3z m3369 -82
c3 -5 -1 -10 -10 -10 -9 0 -13 5 -10 10 3 6 8 10 10 10 2 0 7 -4 10 -10z
m-2017 -273 l117 -2 -2 -29 c-4 -48 -8 -50 -140 -62 -43 -4 -63 -3 -63 5 0 6
-18 14 -40 17 -33 5 -40 10 -40 30 0 26 27 57 41 48 6 -3 63 -7 127 -7z m-429
-24 c-13 -16 -25 -29 -26 -31 -3 -7 -120 -24 -173 -26 -50 -1 -55 1 -58 21 -3
17 4 26 24 33 40 16 121 28 193 29 l64 1 -24 -27z m3171 -35 c545 -3 724 -16
780 -58 20 -15 22 -20 9 -31 -10 -10 -44 -14 -117 -14 -88 0 -106 -3 -117 -18
-9 -13 -15 -15 -20 -7 -4 7 -18 9 -31 6 -16 -4 -26 -1 -33 11 -8 15 -12 16
-23 5 -10 -10 -10 -16 0 -33 12 -19 9 -39 -7 -39 -5 0 -26 7 -46 16 -29 12
-35 18 -24 24 7 5 24 7 37 3 19 -4 23 -2 20 12 -3 18 -45 25 -168 28 -46 1
-64 -2 -62 -11 1 -8 -13 -12 -43 -12 -25 0 -45 5 -45 10 0 6 -5 10 -11 10 -5
0 -7 -4 -4 -10 3 -5 -3 -10 -14 -10 -12 0 -21 -7 -21 -15 0 -8 5 -15 10 -15 6
0 10 5 10 10 0 6 9 10 20 10 25 0 26 -17 3 -24 -37 -10 -213 -4 -223 9 -6 7
-22 10 -37 7 -18 -3 -24 -1 -19 7 11 17 -41 14 -86 -6 -21 -9 -38 -23 -38 -30
0 -14 -51 -19 -64 -6 -4 4 10 17 31 30 l38 23 -31 0 c-16 0 -45 -11 -63 -25
-30 -21 -40 -23 -97 -18 -50 5 -69 2 -89 -11 -23 -15 -26 -15 -31 -1 -4 9 2
25 12 36 12 13 17 32 15 54 -2 34 12 73 33 88 6 4 49 5 96 3 47 -3 249 -6 450
-8z m-2317 -109 c53 -28 88 -55 80 -63 -22 -21 -148 14 -156 44 -11 44 14 50
76 19z m2547 -23 c0 -3 -4 -8 -10 -11 -5 -3 -10 -1 -10 4 0 6 5 11 10 11 6 0
10 -2 10 -4z m-1810 -71 c0 -61 -1 -65 -26 -71 -16 -4 -23 -11 -20 -21 4 -11
1 -13 -14 -8 -13 4 -22 1 -26 -9 -8 -20 -24 -20 -49 -2 -18 13 -18 14 3 41 12
15 22 36 22 46 0 10 9 20 20 24 11 3 29 19 40 36 35 49 50 38 50 -36z m2120
25 c0 -5 -4 -10 -10 -10 -5 0 -10 5 -10 10 0 6 5 10 10 10 6 0 10 -4 10 -10z
m57 -16 c-3 -3 -12 -4 -19 -1 -8 3 -5 6 6 6 11 1 17 -2 13 -5z m43 -4 c0 -5
-2 -10 -4 -10 -3 0 -8 5 -11 10 -3 6 -1 10 4 10 6 0 11 -4 11 -10z m-3424 -32
c-3 -28 -8 -34 -35 -39 -30 -6 -32 -5 -29 20 2 18 8 25 19 23 9 -1 19 4 23 13
10 27 26 16 22 -17z m3789 -147 c-3 -6 -11 -11 -17 -11 -6 0 -6 6 2 15 14 17
26 13 15 -4z m-5555 -822 c0 -5 -4 -9 -10 -9 -5 0 -10 7 -10 16 0 8 5 12 10 9
6 -3 10 -10 10 -16z m2460 -871 c0 -6 -6 -5 -15 2 -8 7 -15 14 -15 16 0 2 7 1
15 -2 8 -4 15 -11 15 -16z m-93 -20 c-3 -8 -6 -5 -6 6 -1 11 2 17 5 13 3 -3 4
-12 1 -19z m2717 -61 c11 -7 26 -19 33 -27 16 -20 -9 -34 -45 -25 -28 7 -82
52 -82 68 0 11 64 0 94 -16z m-2998 -252 c1 -45 -13 -69 -78 -133 -60 -58 -78
-72 -98 -72 -10 0 -31 -11 -46 -25 -15 -14 -30 -25 -33 -25 -3 0 -19 -23 -36
-51 -16 -28 -38 -63 -47 -78 -9 -14 -17 -35 -17 -46 -2 -38 -22 -93 -36 -99
-20 -7 -132 70 -149 103 -15 27 -15 106 -2 149 6 19 4 25 -13 29 -29 7 -26 31
8 72 l28 34 31 -18 c28 -17 33 -17 49 -3 10 8 40 25 66 36 37 17 54 19 74 11
32 -12 53 1 120 71 36 38 55 50 78 50 16 0 39 7 50 16 29 22 50 13 51 -21z
m-496 -75 c0 -5 -4 -10 -10 -10 -5 0 -10 5 -10 10 0 6 5 10 10 10 6 0 10 -4
10 -10z m1633 -188 c23 -16 51 -32 62 -37 16 -6 17 -9 4 -12 -8 -2 -23 -17
-32 -33 -17 -28 -17 -29 3 -40 24 -13 44 -4 36 16 -6 15 29 38 43 30 5 -3 11
-43 13 -88 5 -85 20 -132 60 -181 19 -24 23 -40 22 -98 -2 -79 -12 -98 -96
-187 -82 -87 -104 -95 -192 -70 -54 15 -60 21 -88 76 -46 89 -52 124 -35 178
19 56 25 109 32 249 4 88 24 173 51 217 12 18 77 7 117 -20z m-1721 -211 c53
-24 148 -112 148 -137 0 -12 -20 -32 -49 -51 -91 -59 -163 -62 -177 -7 -10 38
2 182 16 199 15 18 10 19 62 -4z"/>
<path d="M5440 5266 c0 -2 7 -7 16 -10 8 -3 12 -2 9 4 -6 10 -25 14 -25 6z"/>
<path d="M5585 5180 c3 -5 8 -10 11 -10 2 0 4 5 4 10 0 6 -5 10 -11 10 -5 0
-7 -4 -4 -10z"/>
<path d="M5500 5146 c0 -8 5 -18 10 -21 6 -3 10 3 10 14 0 12 -4 21 -10 21 -5
0 -10 -6 -10 -14z"/>
<path d="M4174 4919 c-3 -6 0 -17 8 -25 13 -13 16 -13 27 0 7 8 10 20 6 26 -8
13 -32 13 -41 -1z"/>
<path d="M3503 4034 c-15 -24 -15 -28 0 -52 24 -41 45 -51 62 -28 8 10 12 23
9 28 -3 5 2 18 11 28 15 16 15 22 5 35 -20 25 -67 19 -87 -11z"/>
<path d="M3351 3941 c-16 -29 -14 -46 8 -65 29 -26 56 -17 57 19 1 17 3 37 5
45 7 25 -57 26 -70 1z"/>
<path d="M3576 3915 c-20 -31 -20 -34 8 -68 28 -35 59 -33 64 3 2 14 8 29 13
35 14 14 11 42 -7 49 -33 13 -62 6 -78 -19z"/>
<path d="M3415 3836 c-3 -9 -7 -22 -9 -30 -7 -21 32 -66 55 -66 10 0 19 3 20
8 0 4 1 27 2 52 2 44 1 45 -31 48 -22 2 -34 -1 -37 -12z"/>
<path d="M5858 4163 c7 -3 16 -2 19 1 4 3 -2 6 -13 5 -11 0 -14 -3 -6 -6z"/>
<path d="M5753 4139 c-1 -12 3 -19 10 -16 17 5 21 37 5 37 -8 0 -14 -9 -15
-21z"/>
<path d="M6000 4140 c0 -19 3 -21 12 -12 9 9 9 15 0 24 -9 9 -12 7 -12 -12z"/>
<path d="M1667 4116 c-4 -10 -5 -21 -2 -24 9 -9 17 6 13 25 -3 17 -4 17 -11
-1z"/>
<path d="M5435 4118 c9 -5 23 -7 32 -4 9 4 26 -1 39 -9 13 -9 24 -12 24 -7 0
15 -44 32 -78 30 -27 -1 -30 -3 -17 -10z"/>
<path d="M7895 4117 c-4 -10 -5 -21 -1 -24 10 -10 18 4 13 24 -4 17 -4 17 -12
0z"/>
<path d="M7285 4084 c-7 -8 -20 -14 -29 -14 -8 0 -18 -4 -21 -10 -9 -15 27
-11 49 5 11 8 28 13 37 10 10 -3 20 -2 23 3 10 16 -44 21 -59 6z"/>
<path d="M7344 4065 c-18 -14 -18 -16 -1 -26 10 -6 14 -15 10 -22 -4 -8 -1 -7
9 1 14 11 17 10 20 -9 2 -17 10 -22 40 -24 25 -1 39 3 43 13 6 17 -22 52 -42
52 -8 0 -21 7 -29 15 -19 19 -25 19 -50 0z"/>
<path d="M7894 3980 c1 -36 -4 -119 -12 -185 -8 -66 -16 -168 -17 -226 -1 -58
-5 -111 -9 -117 -3 -6 -9 -41 -12 -79 -6 -73 4 -94 51 -105 19 -5 21 0 23 68
1 45 -2 74 -8 74 -5 0 -10 9 -10 20 0 11 5 20 10 20 14 0 11 284 -3 327 -7 22
-7 39 -1 55 8 16 7 52 -2 118 -11 83 -12 87 -10 30z"/>
<path d="M7505 3980 c3 -5 8 -10 11 -10 2 0 4 5 4 10 0 6 -5 10 -11 10 -5 0
-7 -4 -4 -10z"/>
</g>
</svg>
