<?xml version="1.0" standalone="no"?>
<!DOCTYPE svg PUBLIC "-//W3C//DTD SVG 20010904//EN"
 "http://www.w3.org/TR/2001/REC-SVG-20010904/DTD/svg10.dtd">
<svg version="1.0" xmlns="http://www.w3.org/2000/svg"
 width="1080.000000pt" height="1920.000000pt" viewBox="0 0 1080.000000 1920.000000"
 preserveAspectRatio="xMidYMid meet">

<g transform="translate(0.000000,1920.000000) scale(0.100000,-0.100000)"
fill="#000000" stroke="none">
<path d="M5115 13910 c-763 -52 -1486 -299 -2118 -722 -242 -162 -422 -311
-652 -542 -325 -325 -566 -652 -775 -1049 -521 -993 -629 -2179 -299 -3265
364 -1196 1263 -2201 2409 -2694 619 -267 1283 -387 1937 -350 324 18 532 49
828 122 620 153 1207 449 1712 864 148 122 478 455 595 601 514 641 828 1373
932 2175 56 435 38 965 -49 1395 -174 867 -590 1631 -1226 2250 -708 691
-1617 1111 -2604 1205 -156 15 -537 20 -690 10z m465 -3134 c389 -59 723 -309
895 -669 283 -591 29 -1296 -568 -1582 -589 -282 -1301 -27 -1582 568 -278
588 -34 1283 553 1576 206 103 465 142 702 107z"/>
</g>
</svg>
